<?xml version="1.0" encoding="utf-8"?>
<!-- Generator: Adobe Illustrator 21.0.2, SVG Export Plug-In . SVG Version: 6.00 Build 0)  -->
<svg version="1.1" id="Layer_1" xmlns="http://www.w3.org/2000/svg" xmlns:xlink="http://www.w3.org/1999/xlink" x="0px" y="0px"
	 viewBox="0 0 256 256" style="enable-background:new 0 0 256 256;" xml:space="preserve">
<g>
	<path d="M128.5,0C57.9,0,0.5,57.4,0.5,128s57.4,128,128,128s128-57.4,128-128S199.1,0,128.5,0z M128.5,12.5
		C192.2,12.5,244,64.3,244,128c0,63.7-51.8,115.5-115.5,115.5C64.8,243.5,13,191.7,13,128C13,64.3,64.8,12.5,128.5,12.5z"/>
	<path d="M128.5,236.9c60,0,108.9-48.8,108.9-108.9c0-60-48.8-108.9-108.9-108.9C68.5,19.1,19.6,68,19.6,128
		C19.6,188,68.5,236.9,128.5,236.9z M122.9,31.8V46c0,3.4,2.8,6.2,6.2,6.2c3.4,0,6.2-2.8,6.2-6.2V31.9c46.9,3.3,85.2,41.1,89.2,87.9
		h-13.6c-3.4,0-6.2,2.8-6.2,6.2s2.8,6.2,6.2,6.2h13.9c-2.2,48.9-40.6,88.4-89.4,91.8V212c0-3.4-2.8-6.2-6.2-6.2
		c-3.4,0-6.2,2.8-6.2,6.2v12.2c-49.5-2.8-88.4-42.4-90.6-91.9h13c3.4,0,6.2-2.8,6.2-6.2c0-3.4-2.8-6.2-6.2-6.2H32.5
		C36.5,72.4,75.3,34.6,122.9,31.8z"/>
	<path d="M74.8,182.1c0.7,0,1.3-0.2,1.9-0.6l55.9-41.5c0,0,0.1-0.1,0.1-0.1c5.8-1.4,10.3-5.9,11.7-11.7c0.1-0.1,0.2-0.1,0.3-0.2
		l41.5-55.9c0.9-1.2,0.8-3-0.3-4.1c-1.1-1.1-2.8-1.2-4.1-0.3l-55.8,41.4c-6.1,1.3-10.9,6.1-12.2,12.2l-41.4,55.8
		c-0.9,1.2-0.8,3,0.3,4.1C73.2,181.8,74,182.1,74.8,182.1z M168.5,85.4l-24.9,33.5c-1.6-3.9-4.6-7.1-8.5-8.7L168.5,85.4z
		 M129.1,115.1c5.2,0,9.5,4.3,9.5,9.5c0,5.2-4.3,9.5-9.5,9.5c-5.2,0-9.5-4.3-9.5-9.5C119.6,119.4,123.9,115.1,129.1,115.1z
		 M114.6,130.7c1.6,3.9,4.7,6.9,8.6,8.5l-33.3,24.7L114.6,130.7z"/>
</g>
</svg>
