<?xml version="1.0" encoding="utf-8"?>
<!-- Generator: Adobe Illustrator 21.0.2, SVG Export Plug-In . SVG Version: 6.00 Build 0)  -->
<svg version="1.1" id="Layer_1" xmlns="http://www.w3.org/2000/svg" xmlns:xlink="http://www.w3.org/1999/xlink" x="0px" y="0px"
	 viewBox="0 0 256 256" style="enable-background:new 0 0 256 256;" xml:space="preserve">
<g>
	<path d="M137.6,254.6H26.4V0.6h98.8c17.2,0,32.1,2,44.5,6.2c12.5,4.1,21.7,9.7,27.8,16.7C209.2,36.5,215,51.3,215,67.8
		c0,19.9-6.1,34-18.7,43.7c-4.6,3.4-7.7,5.5-9.4,6.4c-1.7,0.9-4.9,2.9-9.3,4.8c15.7,3.4,28.3,10.5,37.6,21.3
		c9.3,10.8,14,24.2,14,40.2c0,17.7-6.1,33.3-18.2,46.9C196.7,246.7,172.2,254.6,137.6,254.6z"/>
</g>
</svg>
