<?xml version="1.0" encoding="utf-8"?>
<!-- Generator: Adobe Illustrator 21.0.2, SVG Export Plug-In . SVG Version: 6.00 Build 0)  -->
<svg version="1.1" id="Layer_1" xmlns="http://www.w3.org/2000/svg" xmlns:xlink="http://www.w3.org/1999/xlink" x="0px" y="0px"
	 viewBox="0 0 256 256" style="enable-background:new 0 0 256 256;" xml:space="preserve">
<g>
	<path d="M236.9,23.8H19.1C8.3,23.8,0,32.1,0,42.9s8.3,19.1,19.1,19.1h217.9c10.7,0,19.1-8.3,19.1-19.1S247.7,23.8,236.9,23.8z"/>
	<path d="M236.9,108.9H19.1C8.3,108.9,0,117.3,0,128s8.3,19.1,19.1,19.1h217.9c10.7,0,19.1-8.3,19.1-19.1S247.7,108.9,236.9,108.9z"
		/>
	<path d="M236.9,194.1H19.1C8.3,194.1,0,202.4,0,213.1c0,10.7,8.3,19.1,19.1,19.1h217.9c10.7,0,19.1-8.3,19.1-19.1
		C256,203,247.7,194.1,236.9,194.1z"/>
</g>
</svg>
