<?xml version="1.0" encoding="utf-8"?>
<!-- Generator: Adobe Illustrator 21.0.2, SVG Export Plug-In . SVG Version: 6.00 Build 0)  -->
<svg version="1.1" id="Layer_1" xmlns="http://www.w3.org/2000/svg" xmlns:xlink="http://www.w3.org/1999/xlink" x="0px" y="0px"
	 viewBox="0 0 256 256" style="enable-background:new 0 0 256 256;" xml:space="preserve">
<path d="M160.9,128l87.8-87.8c9.1-9,9.1-23.8,0-32.9c-4.4-4.4-10.3-6.8-16.5-6.8s-12.1,2.4-16.5,6.8L128,95L40.3,7.4
	C35.9,3,30,0.6,23.8,0.6C17.5,0.6,11.7,3,7.3,7.4c-9.1,9.1-9.1,23.8,0,32.9L95,128L7.3,215.7c-4.4,4.4-6.8,10.3-6.8,16.5
	c0,6.3,2.4,12.1,6.8,16.5c4.4,4.4,10.3,6.8,16.5,6.8s12.1-2.4,16.5-6.8L128,161l87.7,87.7c4.4,4.4,10.3,6.8,16.5,6.8
	s12.1-2.4,16.5-6.8c9.1-9.1,9.1-23.8,0-32.9L160.9,128z"/>
</svg>
