<?xml version="1.0" encoding="utf-8"?>
<!-- Generator: Adobe Illustrator 21.0.2, SVG Export Plug-In . SVG Version: 6.00 Build 0)  -->
<svg version="1.1" id="Layer_1" xmlns="http://www.w3.org/2000/svg" xmlns:xlink="http://www.w3.org/1999/xlink" x="0px" y="0px"
	 viewBox="0 0 256 256" style="enable-background:new 0 0 256 256;" xml:space="preserve">
<g>
	<path d="M118.9,27.4V9.1c0-5.1,4.1-9.1,9.1-9.1c5.1,0,9.1,4.1,9.1,9.1v18.3c0,5.1-4.1,9.1-9.1,9.1
		C122.9,36.6,118.9,32.5,118.9,27.4z"/>
	<path d="M37.5,50.4c-3.6-3.6-3.6-9.4,0-12.9s9.4-3.6,12.9,0l12.9,12.9c3.6,3.6,3.6,9.4,0,12.9s-9.4,3.6-12.9,0L37.5,50.4z"/>
	<path d="M218.5,205.6c3.6,3.6,3.6,9.4,0,12.9c-3.6,3.6-9.4,3.6-12.9,0l-12.9-12.9c-3.6-3.6-3.6-9.4,0-12.9c3.6-3.6,9.4-3.6,12.9,0
		L218.5,205.6z"/>
	<path d="M36.6,128c0,5.1-4.1,9.1-9.1,9.1H9.1c-5.1,0-9.1-4.1-9.1-9.1c0-5.1,4.1-9.1,9.1-9.1h18.3C32.5,118.9,36.6,122.9,36.6,128z"
		/>
	<path d="M256,128c0,5.1-4.1,9.1-9.1,9.1h-18.3c-5.1,0-9.1-4.1-9.1-9.1c0-5.1,4.1-9.1,9.1-9.1h18.3C251.9,118.9,256,122.9,256,128z"
		/>
	<path d="M63.3,192.7c3.6,3.6,3.6,9.4,0,12.9l-12.9,12.9c-3.6,3.6-9.4,3.6-12.9,0c-3.6-3.6-3.6-9.4,0-12.9l12.9-12.9
		C54,189.1,59.8,189.1,63.3,192.7z"/>
	<path d="M192.7,63.3c-3.6-3.6-3.6-9.4,0-12.9l12.9-12.9c3.6-3.6,9.4-3.6,12.9,0c3.6,3.6,3.6,9.4,0,12.9l-12.9,12.9
		C202,66.9,196.2,66.9,192.7,63.3z"/>
	<path d="M128,45.7c-45,0-82,37.6-82.3,81.7c-0.2,28.8,14.4,54.2,36.6,69v32.2c0,15.1,12.3,27.4,27.4,27.4h36.6
		c15.1,0,27.4-12.3,27.4-27.4v-32.2c22-14.8,36.6-39.9,36.6-68.4C210.3,82.6,173.4,45.7,128,45.7z M146.3,237.7h-36.6
		c-5,0-9.1-4.1-9.1-9.1v-9.1h54.9v9.1C155.4,233.6,151.3,237.7,146.3,237.7z M163.5,181.2c-5.1,3.4-8.1,9.1-8.1,15.2v4.7h-54.9v-4.7
		c0-6.1-3-11.8-8.1-15.2c-18-12-28.6-32.1-28.5-53.7C64.2,93.7,93.3,64,128,64c35.3,0,64,28.7,64,64
		C192,149.4,181.4,169.3,163.5,181.2z"/>
</g>
</svg>
