<?xml version="1.0" encoding="utf-8"?>
<!-- Generator: Adobe Illustrator 21.0.2, SVG Export Plug-In . SVG Version: 6.00 Build 0)  -->
<svg version="1.1" id="Layer_1" xmlns="http://www.w3.org/2000/svg" xmlns:xlink="http://www.w3.org/1999/xlink" x="0px" y="0px"
	 viewBox="0 0 256 256" style="enable-background:new 0 0 256 256;" xml:space="preserve">
<g>
	<path d="M128,132.7c27.2,0,49.5-22.3,51.9-52.1l0.2-28.4c0,0,0,0,0,0c0,0,0,0,0,0v-9.5c0-6.4-0.9-28-11.8-34.9
		c-2.6-1.6-6.8-3-12.3-1.1C147.7,2.3,138,0,128,0C99.2,0,75.9,19.1,75.9,42.7v9.5v28c0,0.1,0,0.7,0,0.8
		C78.2,110,101.1,132.7,128,132.7z M128,9.5c9.2,0,18,2.3,25.4,6.5c1.4,0.8,3,0.8,4.4,0.2c3.5-1.7,5-0.7,5.5-0.4
		c3.6,2.3,5.9,10.2,6.9,18.5c-4.4-3.8-9.1-5.9-13.7-5.9c-4.6,0-9.5,2.3-14.6,4.8c-4.8,2.3-9.9,4.7-13.8,4.7c-2.1,0-4.8-0.1-7.8-0.3
		c-3.8-0.2-7.9-0.3-11.7-0.3c-4.2,0-7.4,0.2-9.8,0.7c-5.4,1.1-9.8,2.3-13.3,3.8C86,23.9,104.8,9.5,128,9.5z M85.3,52.6
		c1.1-1.2,5.9-3.5,15.1-5.3c1.8-0.3,4.5-0.5,8-0.5c3.7,0,7.7,0.2,11.3,0.3c3.2,0.1,6,0.3,8.3,0.3c6.1,0,12.4-3,17.9-5.6
		c4-1.9,8.1-3.9,10.6-3.9c2.7,0,5.9,1.7,8.9,4.7c3.7,3.7,5.4,7.8,5.4,9.5l-0.2,28.1c-2,24.5-20.3,43.1-42.5,43.1
		c-22,0-40.7-18.9-42.7-43.1V52.6z"/>
	<path d="M118.5,170.7h19c2.6,0,4.7-2.1,4.7-4.7V163l22.2,7.4c0.5,0.2,1,0.2,1.5,0.2c1,0,2-0.3,2.8-0.9c1.2-0.9,2-2.3,2-3.8v-19
		c0-1.5-0.7-3-2-3.8c-1.2-0.9-2.8-1.1-4.3-0.6l-22.2,7.4V147c0-2.6-2.1-4.7-4.7-4.7h-19c-2.6,0-4.7,2.1-4.7,4.7v2.9l-22.2-7.4
		c-1.5-0.5-3-0.2-4.3,0.6c-1.2,0.9-2,2.3-2,3.8v19c0,1.5,0.7,3,2,3.8c0.8,0.6,1.8,0.9,2.8,0.9c0.5,0,1-0.1,1.5-0.2l22.2-7.4v2.9
		C113.8,168.5,115.9,170.7,118.5,170.7z M161.2,153.5v5.8l-8.7-2.9L161.2,153.5z M123.3,151.7h9.5v9.5h-9.5V151.7z M94.8,159.3v-5.8
		l8.7,2.9L94.8,159.3z"/>
	<path d="M194.4,151.7h-9.5c-2.6,0-4.7,2.1-4.7,4.7c0,2.6,2.1,4.7,4.7,4.7h9.5c15.7,0,23.7,11.2,23.7,33.2v52.1h-37.9v-33.2
		c0-2.6-2.1-4.7-4.7-4.7c-2.6,0-4.7,2.1-4.7,4.7v33.2H85.3v-33.2c0-2.6-2.1-4.7-4.7-4.7s-4.7,2.1-4.7,4.7v33.2H37.9v-52.1
		c0-22,8-33.2,23.7-33.2h9.5c2.6,0,4.7-2.1,4.7-4.7c0-2.6-2.1-4.7-4.7-4.7h-9.5c-21.1,0-33.2,15.5-33.2,42.7v56.9
		c0,2.6,2.1,4.7,4.7,4.7h189.6c2.6,0,4.7-2.1,4.7-4.7v-56.9C227.6,167.3,215.5,151.7,194.4,151.7z"/>
</g>
</svg>
