<?xml version="1.0" encoding="utf-8"?>
<!-- Generator: Adobe Illustrator 21.0.2, SVG Export Plug-In . SVG Version: 6.00 Build 0)  -->
<svg version="1.1" id="Layer_1" xmlns="http://www.w3.org/2000/svg" xmlns:xlink="http://www.w3.org/1999/xlink" x="0px" y="0px"
	 viewBox="0 0 256 256" style="enable-background:new 0 0 256 256;" xml:space="preserve">
<style type="text/css">
	.st0{fill-rule:evenodd;clip-rule:evenodd;}
</style>
<path fill="#FFFFFF" id="XMLID_1_" class="st0" d="M94.6,191.7c0-20-0.1-40.1,0.1-60.1c0-3.4-0.9-4.4-4.3-4.3c-6.2,0.3-12.5,0-18.8,0.1
	c-2.5,0.1-3.5-0.6-3.4-3.3c0.1-12.5,0.1-25,0-37.5c0-2.4,0.7-3.2,3.1-3.1c6.4,0.1,12.8-0.2,19.2,0.1c3.7,0.2,4.5-1.1,4.4-4.6
	c-0.2-9.5-0.2-19,0-28.6c0.3-11.6,3.4-22.5,10.3-31.9c8.8-12,21.2-17.4,35.6-18.1c14.8-0.7,29.6-0.3,44.3-0.5c2.1,0,2.7,0.7,2.7,2.7
	c-0.1,12.6-0.1,25.3,0,37.9c0,2.2-0.7,2.9-2.9,2.9c-7.1-0.1-14.2-0.1-21.3,0c-9.5,0-15.1,4.9-15.7,14.3c-0.5,7.5-0.1,15.1-0.3,22.6
	c-0.1,2.7,1.5,2.5,3.3,2.5c10.8,0,21.6,0.1,32.4-0.1c3.2-0.1,4.2,0.7,3.9,4c-1.4,12.6-2.5,25.2-3.6,37.8c-0.2,2.8-1.5,3.4-4.1,3.3
	c-8.5-0.1-17-0.1-25.6,0c-6.1,0-5.5-0.9-5.5,5.3c0,39.2-0.1,78.5,0.1,117.7c0,4.1-1,5.2-5.1,5.1c-14.6-0.3-29.3-0.3-43.9,0
	c-4.1,0.1-4.8-1.3-4.8-5C94.7,231.2,94.6,211.5,94.6,191.7z"/>
</svg>
