<?xml version="1.0" encoding="utf-8"?>
<!-- Generator: Adobe Illustrator 21.0.2, SVG Export Plug-In . SVG Version: 6.00 Build 0)  -->
<svg version="1.1" id="Layer_1" xmlns="http://www.w3.org/2000/svg" xmlns:xlink="http://www.w3.org/1999/xlink" x="0px" y="0px"
	 viewBox="0 0 256 256" style="enable-background:new 0 0 256 256;" xml:space="preserve">
<path d="M249.3,119.1c13.1-11.6,6-32.9-11.5-34.8l-60.7-6.5c-2.4-0.3-4.5-1.7-5.5-3.9l-25-54.7c-7.2-15.8-30-15.8-37.3,0l-25,54.7
	c-1,2.2-3.1,3.7-5.5,3.9l-60.7,6.5C0.7,86.2-6.3,107.5,6.7,119.1l45.2,40.2c1.8,1.6,2.6,4,2.1,6.3l-12.5,58.7
	c-3.6,16.9,14.9,30.1,30.1,21.5l52.9-29.8c2.1-1.2,4.7-1.2,6.8,0l52.9,29.8c15.3,8.6,33.7-4.6,30.1-21.5L202,165.7
	c-0.5-2.3,0.3-4.7,2.1-6.3L249.3,119.1z M188.6,168.4l12.5,58.7c1.2,5.6-5,10-10,7.2l-52.9-29.8c-6.3-3.5-14-3.5-20.3,0l-52.9,29.8
	c-5.1,2.9-11.2-1.5-10-7.2l12.5-58.7c1.5-7-0.9-14.2-6.3-19l-45.2-40.2c-4.4-3.9-2-11,3.8-11.6l60.7-6.5c7.2-0.8,13.5-5.2,16.4-11.7
	l25-54.7c2.4-5.3,10-5.3,12.4,0l25,54.7c3,6.5,9.2,11,16.4,11.7l60.7,6.5c5.8,0.6,8.2,7.7,3.8,11.6l-45.2,40.2
	C189.5,154.2,187.2,161.5,188.6,168.4z"/>
</svg>
