<?xml version="1.0" encoding="utf-8"?>
<!-- Generator: Adobe Illustrator 21.0.2, SVG Export Plug-In . SVG Version: 6.00 Build 0)  -->
<svg version="1.1" id="Layer_1" xmlns="http://www.w3.org/2000/svg" xmlns:xlink="http://www.w3.org/1999/xlink" x="0px" y="0px"
	 viewBox="0 0 256 256" style="enable-background:new 0 0 256 256;" xml:space="preserve">
<path d="M3.9,252.1c2.6,2.6,6,3.9,9.4,3.9s6.8-1.3,9.4-3.9l61.8-61.8c18.6,14.4,41.2,22.3,65.1,22.3c28.4,0,55.1-11.1,75.1-31.1
	c20.1-20.1,31.1-46.8,31.1-75.2s-11.1-55.1-31.1-75.1C204.8,11.1,178.1,0,149.7,0c-28.4,0-55.1,11.1-75.1,31.1
	c-38.2,38.2-41.2,98.6-8.8,140.2L3.9,233.2C-1.3,238.4-1.3,246.9,3.9,252.1z M149.7,185.8c-21.2,0-41.2-8.3-56.3-23.3
	c-31-31-31-81.5,0-112.5c15-15,35-23.3,56.3-23.3C171,26.7,191,35,206,50c15,15,23.3,35,23.3,56.3c0,21.2-8.3,41.2-23.3,56.3
	C191,177.6,171,185.8,149.7,185.8z"/>
</svg>
