<?xml version="1.0" encoding="utf-8"?>
<!-- Generator: Adobe Illustrator 21.0.2, SVG Export Plug-In . SVG Version: 6.00 Build 0)  -->
<svg version="1.1" id="Layer_1" xmlns="http://www.w3.org/2000/svg" xmlns:xlink="http://www.w3.org/1999/xlink" x="0px" y="0px"
	 viewBox="0 0 256 256" style="enable-background:new 0 0 256 256;" xml:space="preserve">
<g>
	<path d="M216.6,158.7l4.3,4.3c2.4,2.4,2.4,6.2,0,8.6l-16.1,16.1c-0.6,0.6-0.6,1.6,0,2.1l16.1,16.1c2.4,2.4,2.4,6.2,0,8.6l-4.3,4.3
		c-2.4,2.4-6.2,2.4-8.6,0l-16.1-16.1c-0.6-0.6-1.6-0.6-2.1,0l-16.1,16.1c-2.4,2.4-6.2,2.4-8.6,0l-4.3-4.3c-2.4-2.4-2.4-6.2,0-8.6
		l16.1-16.1c0.6-0.6,0.6-1.6,0-2.1l-16.1-16.1c-2.4-2.4-2.4-6.2,0-8.6l4.3-4.3c2.4-2.4,6.2-2.4,8.6,0l16.1,16.1
		c0.6,0.6,1.6,0.6,2.1,0l16.1-16.1C210.4,156.3,214.2,156.3,216.6,158.7z"/>
	<path d="M255.1,55.3L226.4,6.7c-2.3-4-8.1-4-10.4,0l-28.8,48.7c-2.4,4,0.5,9.1,5.2,9.1h18.2c0.8,0,1.5,0.7,1.5,1.5v10.6
		c0,20.1-16.3,36.4-36.4,36.4H84.8c-30.1,0-54.5,24.4-54.5,54.5v6c0,0.7-0.5,1.3-1.1,1.4c-18.1,4.8-31,22.2-29,42.2
		c1.9,18.1,16.5,32.9,34.7,34.9c23.8,2.6,43.9-15.9,43.9-39.1c0-18.2-12.4-33.5-29.2-38c-0.7-0.2-1.1-0.8-1.1-1.4v-6
		c0-20.1,16.3-36.4,36.4-36.4h90.9c30.1,0,54.5-24.4,54.5-54.5V66c0-0.8,0.7-1.5,1.5-1.5h18.2C254.6,64.5,257.5,59.4,255.1,55.3z
		 M60.6,212.9c0,11.7-9.5,21.2-21.2,21.2s-21.2-9.5-21.2-21.2s9.5-21.2,21.2-21.2S60.6,201.2,60.6,212.9z"/>
	<path d="M95.4,25.4l4.3,4.3c2.4,2.4,2.4,6.2,0,8.6L83.6,54.3c-0.6,0.6-0.6,1.6,0,2.1l16.1,16.1c2.4,2.4,2.4,6.2,0,8.6l-4.3,4.3
		c-2.4,2.4-6.2,2.4-8.6,0L70.8,69.3c-0.6-0.6-1.6-0.6-2.1,0L52.5,85.4c-2.4,2.4-6.2,2.4-8.6,0l-4.3-4.3c-2.4-2.4-2.4-6.2,0-8.6
		l16.1-16.1c0.6-0.6,0.6-1.6,0-2.1L39.7,38.3c-2.4-2.4-2.4-6.2,0-8.6l4.3-4.3c2.4-2.4,6.2-2.4,8.6,0l16.1,16.1
		c0.6,0.6,1.6,0.6,2.1,0l16.1-16.1C89.2,23,93,23,95.4,25.4z"/>
</g>
</svg>
